<?xml version="1.0" standalone="no"?><!DOCTYPE svg PUBLIC "-//W3C//DTD SVG 1.1//EN" "http://www.w3.org/Graphics/SVG/1.1/DTD/svg11.dtd"><svg t="1557383723352" class="icon" style="" viewBox="0 0 1024 1024" version="1.1" xmlns="http://www.w3.org/2000/svg" p-id="1095" xmlns:xlink="http://www.w3.org/1999/xlink" width="200" height="200"><defs><style type="text/css"></style></defs><path d="M512 33.991701C248.564315 33.991701 33.991701 248.564315 33.991701 512c0 263.435685 214.572614 478.008299 478.008299 478.008299s478.008299-214.572614 478.008299-478.008299C990.008299 248.564315 775.435685 33.991701 512 33.991701zM512 932.647303C280.431535 932.647303 91.352697 743.568465 91.352697 512c0-231.568465 189.078838-420.647303 420.647303-420.647303s420.647303 189.078838 420.647303 420.647303C932.647303 743.568465 743.568465 932.647303 512 932.647303z" p-id="1096"></path><path d="M480.13278 552.365145 259.186722 552.365145c-16.995851 0-29.742739-12.746888-29.742739-29.742739 0-16.995851 12.746888-29.742739 29.742739-29.742739l220.946058 0 0 0L480.13278 274.058091c0-16.995851 12.746888-29.742739 29.742739-29.742739 16.995851 0 29.742739 12.746888 29.742739 29.742739l0 218.821577 0 0 220.946058 0c16.995851 0 29.742739 12.746888 29.742739 29.742739 0 16.995851-12.746888 29.742739-29.742739 29.742739L537.493776 552.365145l0 0 0 218.821577c0 16.995851-12.746888 29.742739-29.742739 29.742739-16.995851 0-29.742739-12.746888-29.742739-29.742739L480.13278 552.365145" p-id="1097"></path></svg>